HIERARCHY
ROOT hips
{
  OFFSET 0 10.6860622 2.3727825e-15
  CHANNELS 6 Xposition Yposition Zposition Yrotation Xrotation Zrotation
  JOINT leftUpperLeg
  {
    OFFSET 0.6642549969 -0.9402397400000004 0
    CHANNELS 3 Yrotation Xrotation Zrotation
    JOINT leftLowerLeg
    {
      OFFSET 0 -3.997221335632195 0
      CHANNELS 3 Yrotation Xrotation Zrotation
      JOINT leftFoot
      {
        OFFSET -0.13777839790000004 -4.6145792000000005 -0.22186036399999998
        CHANNELS 3 Yrotation Xrotation Zrotation
        JOINT leftToes
        {
          OFFSET -0.03777410834999995 -0.9130806927000008 0.85230013
          CHANNELS 3 Yrotation Xrotation Zrotation
          End Site
          {
            OFFSET -0.03777410834999995 -0.9130806927000008 0.85230013
          }
        }
      }
    }
  }
  JOINT rightUpperLeg
  {
    OFFSET -0.6642778626 -0.9402397400000004 0
    CHANNELS 3 Yrotation Xrotation Zrotation
    JOINT rightLowerLeg
    {
      OFFSET 0 -3.997221452859387 0
      CHANNELS 3 Yrotation Xrotation Zrotation
      JOINT rightFoot
      {
        OFFSET 0.1377926176 -4.6145792000000005 -0.22185782299999995
        CHANNELS 3 Yrotation Xrotation Zrotation
        JOINT rightToes
        {
          OFFSET 0.037780746850000047 -0.9130806927000008 0.85230167
          CHANNELS 3 Yrotation Xrotation Zrotation
          End Site
          {
            OFFSET 0.037780746850000047 -0.9130806927000008 0.85230167
          }
        }
      }
    }
  }
  JOINT spine
  {
    OFFSET 0 0.13988381660000015 0
    CHANNELS 3 Yrotation Xrotation Zrotation
    JOINT chest
    {
      OFFSET 0 0.6191039003973773 0
      CHANNELS 3 Yrotation Xrotation Zrotation
      JOINT upperChest
      {
        OFFSET 0 0.9855186130586943 0
        CHANNELS 3 Yrotation Xrotation Zrotation
        JOINT leftShoulder
        {
          OFFSET 0.1807663869 1.5087829790000005 0
          CHANNELS 3 Yrotation Xrotation Zrotation
          JOINT leftUpperArm
          {
            OFFSET 0.5985063006419806 0 0
            CHANNELS 3 Yrotation Xrotation Zrotation
            JOINT leftLowerArm
            {
              OFFSET 2.2993332369501065 0 0
              CHANNELS 3 Yrotation Xrotation Zrotation
              JOINT leftHand
              {
                OFFSET 2.395047042602395 0 0
                CHANNELS 3 Yrotation Xrotation Zrotation
                JOINT leftIndexProximal
                {
                  OFFSET 0.5766295810000004 0.04556643899499946 0.17265095988184
                  CHANNELS 3 Yrotation Xrotation Zrotation
                  JOINT leftIndexIntermediate
                  {
                    OFFSET 0.2957229000000008 -0.019352197700001517 -0.007932640616999987
                    CHANNELS 3 Yrotation Xrotation Zrotation
                    JOINT leftIndexDistal
                    {
                      OFFSET 0.19008243099999922 -0.012484908149998475 -0.002786250786000012
                      CHANNELS 3 Yrotation Xrotation Zrotation
                      End Site
                      {
                        OFFSET 0.19008243099999922 -0.012484908149998475 -0.002786250786000012
                      }
                    }
                  }
                }
                JOINT leftMiddleProximal
                {
                  OFFSET 0.5834975091000001 0.0524350405149987 0.02204081888183999
                  CHANNELS 3 Yrotation Xrotation Zrotation
                  JOINT leftMiddleIntermediate
                  {
                    OFFSET 0.33880573540000003 -0.019871473270000717 -0.00000971183179999946
                    CHANNELS 3 Yrotation Xrotation Zrotation
                    JOINT leftMiddleDistal
                    {
                      OFFSET 0.20676022730000088 -0.012221336379999448 0.0001471936708000235
                      CHANNELS 3 Yrotation Xrotation Zrotation
                      End Site
                      {
                        OFFSET 0.20676022730000088 -0.012221336379999448 0.0001471936708000235
                      }
                    }
                  }
                }
                JOINT leftLittleProximal
                {
                  OFFSET 0.5344154683999995 -0.012880921405001189 -0.24414037221816004
                  CHANNELS 3 Yrotation Xrotation Zrotation
                  JOINT leftLittleIntermediate
                  {
                    OFFSET 0.21758961730000093 -0.011650919939999227 0.011893592810000034
                    CHANNELS 3 Yrotation Xrotation Zrotation
                    JOINT leftLittleDistal
                    {
                      OFFSET 0.1475273964999999 -0.008152365682999818 0.006001092492999946
                      CHANNELS 3 Yrotation Xrotation Zrotation
                      End Site
                      {
                        OFFSET 0.1475273964999999 -0.008152365682999818 0.006001092492999946
                      }
                    }
                  }
                }
                JOINT leftRingProximal
                {
                  OFFSET 0.5799399463000003 0.026911854694997794 -0.12150566991816003
                  CHANNELS 3 Yrotation Xrotation Zrotation
                  JOINT leftRingIntermediate
                  {
                    OFFSET 0.26167887460000006 -0.013480186499999602 0.010996293000000053
                    CHANNELS 3 Yrotation Xrotation Zrotation
                    JOINT leftRingDistal
                    {
                      OFFSET 0.17667108799999987 -0.008990287899999228 0.0055541023999999065
                      CHANNELS 3 Yrotation Xrotation Zrotation
                      End Site
                      {
                        OFFSET 0.17667108799999987 -0.008990287899999228 0.0055541023999999065
                      }
                    }
                  }
                }
                JOINT leftThumbProximal
                {
                  OFFSET 0.11018806699999972 -0.09448718900500053 0.17047963138184
                  CHANNELS 3 Yrotation Xrotation Zrotation
                  JOINT leftThumbIntermediate
                  {
                    OFFSET 0.31062601459999983 -0.08126270900000132 0.15443142000000007
                    CHANNELS 3 Yrotation Xrotation Zrotation
                    JOINT leftThumbDistal
                    {
                      OFFSET 0.21627175790000086 -0.08833193599999878 0.018771167799999988
                      CHANNELS 3 Yrotation Xrotation Zrotation
                      End Site
                      {
                        OFFSET 0.21627175790000086 -0.08833193599999878 0.018771167799999988
                      }
                    }
                  }
                }
              }
            }
          }
        }
        JOINT neck
        {
          OFFSET 0 1.5463305265074576 0
          CHANNELS 3 Yrotation Xrotation Zrotation
          JOINT head
          {
            OFFSET 0 0.8456443600000344 0
            CHANNELS 3 Yrotation Xrotation Zrotation
            JOINT leftEye
            {
              OFFSET 0.30408573140000006 0.5104519199999995 0.1276382305
              CHANNELS 3 Yrotation Xrotation Zrotation
              End Site
              {
                OFFSET 0.30408573140000006 0.5104519199999995 0.1276382305
              }
            }
            JOINT rightEye
            {
              OFFSET -0.30409491089999996 0.5104519199999995 0.1276379445
              CHANNELS 3 Yrotation Xrotation Zrotation
              End Site
              {
                OFFSET -0.30409491089999996 0.5104519199999995 0.1276379445
              }
            }
            JOINT jaw
            {
              OFFSET -3.155239131000001e-7 -0.11984121820000082 0.60178107
              CHANNELS 3 Yrotation Xrotation Zrotation
              End Site
              {
                OFFSET -3.155239131000001e-7 -0.11984121820000082 0.60178107
              }
            }
          }
        }
        JOINT rightShoulder
        {
          OFFSET -0.1807303465 1.5087829790000005 0
          CHANNELS 3 Yrotation Xrotation Zrotation
          JOINT rightUpperArm
          {
            OFFSET -0.5985063796536958 0 0
            CHANNELS 3 Yrotation Xrotation Zrotation
            JOINT rightLowerArm
            {
              OFFSET -2.2993322059002854 0 0
              CHANNELS 3 Yrotation Xrotation Zrotation
              JOINT rightHand
              {
                OFFSET -2.395045314457259 0 0
                CHANNELS 3 Yrotation Xrotation Zrotation
                JOINT rightIndexProximal
                {
                  OFFSET -0.5764487688300002 0.0441371204405987 0.17361932004999997
                  CHANNELS 3 Yrotation Xrotation Zrotation
                  JOINT rightIndexIntermediate
                  {
                    OFFSET -0.29573011380000047 -0.01934826376999843 -0.007698921482999974
                    CHANNELS 3 Yrotation Xrotation Zrotation
                    JOINT rightIndexDistal
                    {
                      OFFSET -0.19008373999999884 -0.012503266380000655 -0.0026365778999999897
                      CHANNELS 3 Yrotation Xrotation Zrotation
                      End Site
                      {
                        OFFSET -0.19008373999999884 -0.012503266380000655 -0.0026365778999999897
                      }
                    }
                  }
                }
                JOINT rightMiddleProximal
                {
                  OFFSET -0.5834852037300005 0.05211639405060153 0.02307162440000001
                  CHANNELS 3 Yrotation Xrotation Zrotation
                  JOINT rightMiddleIntermediate
                  {
                    OFFSET -0.33880114510000003 -0.019952774050000954 0.0002455003561999819
                    CHANNELS 3 Yrotation Xrotation Zrotation
                    JOINT rightMiddleDistal
                    {
                      OFFSET -0.20675694929999955 -0.012273788999999091 0.00030209124000002766
                      CHANNELS 3 Yrotation Xrotation Zrotation
                      End Site
                      {
                        OFFSET -0.20675694929999955 -0.012273788999999091 0.00030209124000002766
                      }
                    }
                  }
                }
                JOINT rightLittleProximal
                {
                  OFFSET -0.5346811737299992 -0.011214256288399227 -0.24363941305000003
                  CHANNELS 3 Yrotation Xrotation Zrotation
                  JOINT rightLittleIntermediate
                  {
                    OFFSET -0.21757715980000092 -0.011771559690000988 0.01201554387
                    CHANNELS 3 Yrotation Xrotation Zrotation
                    JOINT rightLittleDistal
                    {
                      OFFSET -0.1475201849000004 -0.00822055339600003 0.006082065407000015
                      CHANNELS 3 Yrotation Xrotation Zrotation
                      End Site
                      {
                        OFFSET -0.1475201849000004 -0.00822055339600003 0.006082065407000015
                      }
                    }
                  }
                }
                JOINT rightRingProximal
                {
                  OFFSET -0.5800810755299999 0.027657985680600072 -0.12066365025000003
                  CHANNELS 3 Yrotation Xrotation Zrotation
                  JOINT rightRingIntermediate
                  {
                    OFFSET -0.26166445029999974 -0.013623118409999302 0.011164098990000045
                    CHANNELS 3 Yrotation Xrotation Zrotation
                    JOINT rightRingDistal
                    {
                      OFFSET -0.17666387530000027 -0.009072900100000503 0.005668185599999959
                      CHANNELS 3 Yrotation Xrotation Zrotation
                      End Site
                      {
                        OFFSET -0.17666387530000027 -0.009072900100000503 0.005668185599999959
                      }
                    }
                  }
                }
                JOINT rightThumbProximal
                {
                  OFFSET -0.10997596379000074 -0.09577489355940072 0.16989765924999997
                  CHANNELS 3 Yrotation Xrotation Zrotation
                  JOINT rightThumbIntermediate
                  {
                    OFFSET -0.31036620999999986 -0.08229339117999834 0.15440884469999996
                    CHANNELS 3 Yrotation Xrotation Zrotation
                    JOINT rightThumbDistal
                    {
                      OFFSET -0.21631306399999906 -0.08825326400000111 0.018656797720000014
                      CHANNELS 3 Yrotation Xrotation Zrotation
                      End Site
                      {
                        OFFSET -0.21631306399999906 -0.08825326400000111 0.018656797720000014
                      }
                    }
                  }
                }
              }
            }
          }
        }
      }
    }
  }
}
MOTION
Frames: 10
Frame Time: 0.03333333333333333
0 11.682712981546562 0 0 0 0 0 0 -5.826343164929014 -0.3712483961610101 -3.6333298826370974 5.838118207697276 0 0 0 0 0 0 0 0 5.826343164929014 0.3712483961610101 -3.6333298826370974 -5.838118207697276 0 0 0 0 0 0 0 -4.610651315171937 0 0 3.0831277533083026 0 0 0 0 0 1.5275236235667615 0 0 0 0 0 0 0 0 0 0 0 0 0 0 0 0 0 0 0 0 0 0 0 0 0 0 0 0 0 0 0 0 0 0 0 0 0 0 0 0 0 0 0 0 0 0 0 0 0 0 0 0 0 0 0 0 1.5275236235667615 0 0 0 0 0 0 0 0 0 0 0 0 0 0 1.5275236235667615 0 0 0 0 0 0 0 0 0 0 0 0 0 0 0 0 0 0 0 0 0 0 0 0 0 0 0 0 0 0 0 0 0 0 0 0 0 0 0 0 0 0 0 0 0 0 0 0 0 0 0 0 0 0 0
0.06691126680569015 -10.503724779998654 8.109369146488655 -0.011127365023310897 -90 0 0.575865886839631 -35.194101223609614 8.564325092059791 27.17835196544228 79.19306963806002 31.57043357298885 3.157275536159218 37.81270782230879 -0.8801568521514356 0 0 0 -0.5786069655172755 -35.19458180975927 -8.56717288295551 -27.20110413813484 79.1906292577301 -31.5933499930754 -3.1628915786924967 37.81262568914924 0.8745417691006863 0 0 0 -0.25050340926471293 -3.7226247246689947 0.6800524485867089 -0.4912526785426712 22.353310671614786 0.6285433325550257 0 0 0 -16.88465749937519 -32.70412514979272 23.439939543588608 52.49305421148548 -53.792157191817935 -106.34556855131989 -121.69007774615878 -8.998858765771752 -2.02307924526583 -4.538252095283681 -21.91184466686594 -21.138308803657356 0 0 0 0 0 0 0 0 0 0 0 0 0 0 0 0 0 0 0 0 0 0 0 0 0 0 0 0 0 0 0 0 0 0 0 0 0 0 0 0 0 0 0 0 0 0 -12.483559330334229 0 0 -17.004086344277912 0 0 0 0 0 0 0 0 0 0 16.886523715253475 -32.70528994039574 -23.466968204958967 -42.91072877657929 -58.99219679632086 92.42812987320342 106.67754412082233 -8.993350766044902 2.0211805362526767 9.79258978943894 -22.91513188711818 30.66863866681602 0 0 0 0 0 0 0 0 0 0 0 0 0 0 0 0 0 0 0 0 0 0 0 0 0 0 0 0 0 0 0 0 0 0 0 0 0 0 0 0 0 0 0 0 0
0.06691126680569015 -10.503724779998654 8.091095658696782 -0.011127365023310897 -90 0 0.5758659521331689 -35.19409704461209 8.564322920075359 27.17835196544228 79.19306963806002 31.57043357298885 3.157275536159218 37.81270782230879 -0.8801568521514356 0 0 0 -0.5786069233157353 -35.194577630737015 -8.567173399504544 -27.20110413813484 79.1906292577301 -31.5933499930754 -3.1628915786924967 37.81262568914924 0.8745417691006863 0 0 0 -0.25050220535133144 -3.278489418595367 0.6782010609486123 -0.4873350955433767 21.24695228723048 0.6387900482975887 0 0 0 -16.71566896806339 -31.93819034085283 22.98140076296014 52.10585756747404 -54.09317138611774 -105.7743634821436 -122.13391415005765 -8.998838884266046 -2.02309748053592 -3.1241658161855304 -20.794468401376204 -20.89349881552655 0 0 0 0 0 0 0 0 0 0 0 0 0 0 0 0 0 0 0 0 0 0 0 0 0 0 0 0 0 0 0 0 0 0 0 0 0 0 0 0 0 0 0 0 0 0 -11.762711614691804 0 0 -16.283117487862807 0 0 0 0 0 0 0 0 0 0 16.706371252459153 -31.941969231874786 -23.003228344329326 -42.99048061566888 -59.0663320652938 92.70922435858198 107.01082237737563 -8.993308410439553 2.0213098996305576 8.407178723602089 -21.82639527329708 30.38657332490745 0 0 0 0 0 0 0 0 0 0 0 0 0 0 0 0 0 0 0 0 0 0 0 0 0 0 0 0 0 0 0 0 0 0 0 0 0 0 0 0 0 0 0 0 0
0.06691126680569015 -10.503724779998654 8.072822170904907 -0.011127365857074242 -90 0 0.5758647535572423 -35.19410540260736 8.564326641709396 27.17835196544228 79.19306963806002 31.57043357298885 3.157275536159218 37.81270782230879 -0.8801568521514356 0 0 0 -0.5786057671347442 -35.19458598878173 -8.567175571695829 -27.20110413813484 79.1906292577301 -31.5933499930754 -3.162891817202056 37.81263001194484 0.8745414989574394 0 0 0 -0.2505149463102469 -2.8342479948154495 0.6763480914764308 -0.4836511228837904 20.138931099147005 0.6488963227025175 0 0 0 -16.555093193431166 -31.170451551289254 22.52884940675508 51.7106572369567 -54.391968808583556 -105.19541711603794 -122.57784509213626 -8.998822460414331 -2.023117565616729 -1.7088730875895088 -19.67811749741463 -20.619961833875383 0 0 0 0 0 0 0 0 0 0 0 0 0 0 0 0 0 0 0 0 0 0 0 0 0 0 0 0 0 0 0 0 0 0 0 0 0 0 0 0 0 0 0 0 0 0 -11.041407594815361 0 0 -15.561688931127494 0 0 0 0 0 0 0 0 0 0 16.534759951858522 -31.176750056777543 -22.545664811501137 -43.071024003599184 -59.14026821589516 92.99104034052986 107.34413328852285 -8.99326432603925 2.021438277164309 7.02024648225528 -20.739585748102538 30.077128609768682 0 0 0 0 0 0 0 0 0 0 0 0 0 0 0 0 0 0 0 0 0 0 0 0 0 0 0 0 0 0 0 0 0 0 0 0 0 0 0 0 0 0 0 0 0
0.06691126680569015 -10.503724779998654 8.054548951505305 -0.011127365023310897 -90 0 0.575865886839631 -35.194101223609614 8.564325092059791 27.17835196544228 79.19306963806002 31.57043357298885 3.157275536159218 37.81270782230879 -0.8801568521514356 0 0 0 -0.5786069655172755 -35.19458180975927 -8.56717288295551 -27.20110413813484 79.1906292577301 -31.5933499930754 -3.1628915786924967 37.81262568914924 0.8745417691006863 0 0 0 -0.2505428572407247 -2.389911492575442 0.6744964806828301 -0.480194587160024 19.029451124493416 0.6588715229332178 0 0 0 -16.402719022261664 -30.40105811809258 22.082049294446406 51.30727121223044 -54.68844990303326 -104.60855396978512 -123.02188765179437 -8.998803443323803 -2.023135800882542 -0.2919696012606213 -18.564121290676933 -20.318031873906087 0 0 0 0 0 0 0 0 0 0 0 0 0 0 0 0 0 0 0 0 0 0 0 0 0 0 0 0 0 0 0 0 0 0 0 0 0 0 0 0 0 0 0 0 0 0 -10.319699113290529 0 0 -14.839866701310692 0 0 0 0 0 0 0 0 0 0 16.371476962992435 -30.40978922822371 -22.09403724275021 -43.15251218658109 -59.21400407931431 93.27375372488866 107.6774728531858 -8.993218512844624 2.021567518524095 5.631444345676918 -19.655951363090704 29.740654971668796 0 0 0 0 0 0 0 0 0 0 0 0 0 0 0 0 0 0 0 0 0 0 0 0 0 0 0 0 0 0 0 0 0 0 0 0 0 0 0 0 0 0 0 0 0
0.06691126680569015 -10.503724779998654 8.03627546371343 -0.011127365023310897 -90 0 0.575865886839631 -35.194101223609614 8.564325092059791 27.17835196544228 79.19306963806002 31.57043357298885 3.1572739492480193 37.81270349950864 -0.8801579327239517 0 0 0 -0.5786057249332883 -35.19458180975927 -8.567173916053573 -27.20110413813484 79.1906292577301 -31.5933499930754 -3.1628915786924967 37.81262568914924 0.8745417691006863 0 0 0 -0.25058487738220536 -1.945496015274751 0.6726448924051857 -0.4769594916995193 17.918709951804697 0.6687226937891839 0 0 0 -16.25832514617003 -29.63013218648911 21.64075047319198 50.8955152378468 -54.98257760700247 -104.01358436187132 -123.46601656314805 -8.998786155060552 -2.0231549000200326 1.1269111298690477 -17.453807297882324 -19.98806409287117 0 0 0 0 0 0 0 0 0 0 0 0 0 0 0 0 0 0 0 0 0 0 0 0 0 0 0 0 0 0 0 0 0 0 0 0 0 0 0 0 0 0 0 0 0 0 -9.59764810098243 0 0 -14.117693127811638 0 0 0 0 0 0 0 0 0 0 16.216310990833684 -29.641231800907352 -21.648107721528827 -43.23484675594685 -59.2875384778746 93.55724016465943 108.01085714894954 -8.993177886054239 2.0216968818246754 4.240447098862881 -18.576775689628843 29.377536892545265 0 0 0 0 0 0 0 0 0 0 0 0 0 0 0 0 0 0 0 0 0 0 0 0 0 0 0 0 0 0 0 0 0 0 0 0 0 0 0 0 0 0 0 0 0
0.06691126680569015 -10.503724779998654 8.018001975921557 -0.011127365023310897 -90 0 0.5758659288410102 -35.19410540260736 8.564324575509918 27.17835196544228 79.19306963806002 31.57043357298885 3.157275536159218 37.81270782230879 -0.8801568521514356 0 0 0 -0.5786057671347442 -35.19458598878173 -8.567175571695829 -27.20110413813484 79.1906292577301 -31.5933499930754 -3.162891817202056 37.81263001194484 0.8745414989574394 0 0 0 -0.2506410285781046 -1.5010125907117264 0.6707933802756335 -0.4739414058063787 16.806921185812037 0.678458225133145 0 0 0 -16.121728634397407 -28.857842102979284 21.20474375044771 50.475351890705376 -55.27425378953575 -103.41046931016629 -123.91018855411238 -8.998768002385031 -2.0231749850969933 2.548107326136985 -16.348517311181755 -19.630438129548182 0 0 0 0 0 0 0 0 0 0 0 0 0 0 0 0 0 0 0 0 0 0 0 0 0 0 0 0 0 0 0 0 0 0 0 0 0 0 0 0 0 0 0 0 0 0 -8.875309288653254 0 0 -13.395234718979237 0 0 0 0 0 0 0 0 0 0 16.069062806575232 -28.87121760201273 -21.207651431462843 -43.318136190989065 -59.36087022500784 93.84162537713267 108.34430467310429 -8.99314158126669 2.0218272029467528 2.846973181169161 -17.503309964152027 28.98816478959485 0 0 0 0 0 0 0 0 0 0 0 0 0 0 0 0 0 0 0 0 0 0 0 0 0 0 0 0 0 0 0 0 0 0 0 0 0 0 0 0 0 0 0 0 0
0.06691126680569015 -10.503724779998654 7.999728756521953 -0.011127363355784207 -90 0 0.575865886839631 -35.194101223609614 8.564325092059791 27.17835196544228 79.19306963806002 31.57043357298885 3.157275536159218 37.81270782230879 -0.8801568521514356 0 0 0 -0.5786069655172755 -35.19458180975927 -8.56717288295551 -27.20110413813484 79.1906292577301 -31.5933499930754 -3.1628915786924967 37.81262568914924 0.8745417691006863 0 0 0 -0.25071227491591025 -1.056478180942743 0.6689406495148748 -0.471134037030624 15.694297096659264 0.6880847977845412 0 0 0 -15.992731026671564 -28.084313831821838 20.77380908789167 50.04662390843798 -55.56339554041569 -102.799055809307 -124.354438008266 -8.998750714123474 -2.0231951640727837 3.9719122583776616 -15.249587621948052 -19.245551878375963 0 0 0 0 0 0 0 0 0 0 0 0 0 0 0 0 0 0 0 0 0 0 0 0 0 0 0 0 0 0 0 0 0 0 0 0 0 0 0 0 0 0 0 0 0 0 -8.152741601203005 0 0 -12.672545137930223 0 0 0 0 0 0 0 0 0 0 15.929529000705116 -28.09988939406629 -20.772435109158053 -43.40225300771561 -59.43399140961736 94.12676702206385 108.67771296919457 -8.993096632487147 2.021957646024845 1.4507699923859594 -16.43683952526739 28.572969728412296 0 0 0 0 0 0 0 0 0 0 0 0 0 0 0 0 0 0 0 0 0 0 0 0 0 0 0 0 0 0 0 0 0 0 0 0 0 0 0 0 0 0 0 0 0
0.06691126680569015 -10.503724779998654 7.981455268730079 -0.011127365023310897 -90 0 0.575865886839631 -35.194101223609614 8.564325092059791 27.17835196544228 79.19306963806002 31.57043357298885 3.157275536159218 37.81270782230879 -0.8801568521514356 0 0 0 -0.5786069655172755 -35.19458180975927 -8.56717288295551 -27.20110413813484 79.1906292577301 -31.5933499930754 -3.1628915786924967 37.81262568914924 0.8745417691006863 0 0 0 -0.250796617079843 -0.6119007452617602 0.6670876334891452 -0.46853365118797596 14.58103898042443 0.6976103987586313 0 0 0 -15.871160851483062 -27.30969999642276 20.34772975741857 49.60923492519481 -55.84992969645601 -102.1792566745366 -124.79872446413505 -8.998734290275761 -2.023214385273363 5.398592958113696 -14.158377480863866 -18.83384091470884 0 0 0 0 0 0 0 0 0 0 0 0 0 0 0 0 0 0 0 0 0 0 0 0 0 0 0 0 0 0 0 0 0 0 0 0 0 0 0 0 0 0 0 0 0 0 -7.430000475741521 0 0 -11.94968382647683 0 0 0 0 0 0 0 0 0 0 15.797545913313305 -27.3274026104355 -20.342268197857678 -43.48732117346324 -59.50688732352336 94.41280516325412 109.01117368278241 -8.993056870109895 2.0220871032202443 0.05164016276738335 -15.378622230558184 28.132382290282827 0 0 0 0 0 0 0 0 0 0 0 0 0 0 0 0 0 0 0 0 0 0 0 0 0 0 0 0 0 0 0 0 0 0 0 0 0 0 0 0 0 0 0 0 0
0.06691126680569015 -10.503724779998654 7.963181780938204 -0.011127365023310897 -90 0 0.575865886839631 -35.194101223609614 8.564325092059791 27.17835196544228 79.19306963806002 31.57043357298885 3.157275536159218 37.81270782230879 -0.8801568521514356 0 0 0 -0.5786057249332883 -35.19458180975927 -8.56717288295551 -27.20110413813484 79.1906292577301 -31.5933499930754 -3.16288999136728 37.812617043558824 0.8745431213736268 0 0 0 -0.25089616507710927 -0.16729734378813937 0.6652340646799166 -0.46613465269099624 13.467359414988637 0.7070411188200123 0 0 0 -15.756829802161182 -26.53412574271334 19.926308257370323 49.163044400041464 -56.13379324784688 -101.55091586133149 -125.24302671780372 -8.998718730841773 -2.0232345642445746 6.828355223625056 -13.076207304891911 -18.39573534275726 0 0 0 0 0 0 0 0 0 0 0 0 0 0 0 0 0 0 0 0 0 0 0 0 0 0 0 0 0 0 0 0 0 0 0 0 0 0 0 0 0 0 0 0 0 0 -6.707147455543994 0 0 -11.226707327593095 0 0 0 0 0 0 0 0 0 0 15.672918858994738 -26.553888893850107 -19.91692899124763 -43.573264258901965 -59.57957685636655 94.69964780969522 109.34465113898246 -8.99301970093511 2.0222175462486796 -1.350590994838662 -14.329928386239985 27.666881101570194 0 0 0 0 0 0 0 0 0 0 0 0 0 0 0 0 0 0 0 0 0 0 0 0 0 0 0 0 0 0 0 0 0 0 0 0 0 0 0 0 0 0 0 0 0
